<svg width="21" height="21" viewBox="0 0 21 21" fill="none" xmlns="http://www.w3.org/2000/svg">
<path fill-rule="evenodd" clip-rule="evenodd" d="M17.625 1.5C17.3266 1.5 17.0404 1.61855 16.8293 1.82958L15.6725 2.98709L17.2635 4.57809L18.4207 3.42092C18.6317 3.20989 18.7502 2.92368 18.7502 2.62525C18.7502 2.32681 18.6317 2.0406 18.4207 1.82958C18.2096 1.61855 17.9234 1.5 17.625 1.5ZM16.2028 5.63875L14.612 4.04788L6.21049 12.4484C6.21042 12.4485 6.21055 12.4484 6.21049 12.4484C5.77028 12.889 5.44653 13.4324 5.26882 14.0293L4.86471 15.3855L6.22084 14.9815C6.81774 14.8038 7.36113 14.4801 7.80167 14.0399C7.80162 14.04 7.80172 14.0399 7.80167 14.0399L16.2028 5.63875ZM15.7685 0.769074C16.2608 0.276745 16.9287 0 17.625 0C18.3213 0 18.989 0.276588 19.4813 0.768917C19.9737 1.26125 20.2502 1.92899 20.2502 2.62525C20.2502 3.32151 19.9737 3.98925 19.4813 4.48158L8.86233 15.1006C8.24558 15.717 7.48486 16.1702 6.64916 16.419C6.64911 16.419 6.64921 16.419 6.64916 16.419L3.96416 17.219C3.70022 17.2977 3.41441 17.2253 3.21967 17.0306C3.02493 16.8358 2.95259 16.55 3.03123 16.2861L3.83118 13.6012C3.83117 13.6013 3.8312 13.6012 3.83118 13.6012C4.08002 12.7655 4.53313 12.0048 5.14951 11.3881L15.7685 0.769074ZM3 5.25025C2.60218 5.25025 2.22064 5.40828 1.93934 5.68959C1.65804 5.97089 1.5 6.35242 1.5 6.75025V17.2502C1.5 17.6481 1.65804 18.0296 1.93934 18.3109C2.22064 18.5922 2.60218 18.7502 3 18.7502H13.5C13.8978 18.7502 14.2794 18.5922 14.5607 18.3109C14.842 18.0296 15 17.6481 15 17.2502V12.5002C15 12.086 15.3358 11.7502 15.75 11.7502C16.1642 11.7502 16.5 12.086 16.5 12.5002V17.2502C16.5 18.0459 16.1839 18.809 15.6213 19.3716C15.0587 19.9342 14.2956 20.2502 13.5 20.2502H3C2.20435 20.2502 1.44129 19.9342 0.87868 19.3716C0.316071 18.809 0 18.0459 0 17.2502V6.75025C0 5.9546 0.316071 5.19154 0.87868 4.62893C1.44129 4.06632 2.20435 3.75025 3 3.75025H7.75C8.16421 3.75025 8.5 4.08603 8.5 4.50025C8.5 4.91446 8.16421 5.25025 7.75 5.25025H3Z" fill="#7D00D3"/>
</svg>
