<svg width="24" height="24" viewBox="0 0 24 24" fill="none" xmlns="http://www.w3.org/2000/svg">
<path fill-rule="evenodd" clip-rule="evenodd" d="M19.875 2.99951C19.5766 2.99951 19.2904 3.11806 19.0793 3.32909L17.9225 4.4866L19.5135 6.0776L20.6707 4.92043C20.8817 4.7094 21.0002 4.42319 21.0002 4.12476C21.0002 3.82633 20.8817 3.54011 20.6707 3.32909C20.4596 3.11806 20.1734 2.99951 19.875 2.99951ZM18.4528 7.13826L16.862 5.54739L8.46049 13.9479C8.46042 13.948 8.46055 13.9479 8.46049 13.9479C8.02028 14.3885 7.69653 14.9319 7.51882 15.5288L7.11471 16.885L8.47084 16.481C9.06774 16.3033 9.61113 15.9797 10.0517 15.5394C10.0516 15.5395 10.0517 15.5394 10.0517 15.5394L18.4528 7.13826ZM18.0185 2.26859C18.5108 1.77626 19.1787 1.49951 19.875 1.49951C20.5713 1.49951 21.239 1.7761 21.7313 2.26843C22.2237 2.76076 22.5002 3.4285 22.5002 4.12476C22.5002 4.82102 22.2237 5.48876 21.7313 5.98109L11.1123 16.6001C10.4956 17.2165 9.73486 17.6697 8.89916 17.9185C8.89911 17.9185 8.89921 17.9185 8.89916 17.9185L6.21416 18.7185C5.95022 18.7972 5.66441 18.7248 5.46967 18.5301C5.27493 18.3353 5.20259 18.0495 5.28123 17.7856L6.08118 15.1007C6.08117 15.1008 6.0812 15.1007 6.08118 15.1007C6.33002 14.2651 6.78313 13.5043 7.39951 12.8876L18.0185 2.26859ZM5.25 6.74976C4.85218 6.74976 4.47064 6.90779 4.18934 7.1891C3.90804 7.4704 3.75 7.85193 3.75 8.24976V18.7498C3.75 19.1476 3.90804 19.5291 4.18934 19.8104C4.47064 20.0917 4.85218 20.2498 5.25 20.2498H15.75C16.1478 20.2498 16.5294 20.0917 16.8107 19.8104C17.092 19.5291 17.25 19.1476 17.25 18.7498V13.9998C17.25 13.5855 17.5858 13.2498 18 13.2498C18.4142 13.2498 18.75 13.5855 18.75 13.9998V18.7498C18.75 19.5454 18.4339 20.3085 17.8713 20.8711C17.3087 21.4337 16.5456 21.7498 15.75 21.7498H5.25C4.45435 21.7498 3.69129 21.4337 3.12868 20.8711C2.56607 20.3085 2.25 19.5454 2.25 18.7498V8.24976C2.25 7.45411 2.56607 6.69105 3.12868 6.12844C3.69129 5.56583 4.45435 5.24976 5.25 5.24976H10C10.4142 5.24976 10.75 5.58555 10.75 5.99976C10.75 6.41397 10.4142 6.74976 10 6.74976H5.25Z" fill="#1E1E1D"/>
</svg>
