<svg width="18" height="18" viewBox="0 0 18 18" fill="none" xmlns="http://www.w3.org/2000/svg">
<path fill-rule="evenodd" clip-rule="evenodd" d="M5.55676 3.30676C5.87322 2.99029 6.30245 2.8125 6.75 2.8125C7.19755 2.8125 7.62678 2.99029 7.94324 3.30676C8.12291 3.48642 8.25788 3.70243 8.34099 3.9375H15.1875C15.4982 3.9375 15.75 4.18934 15.75 4.5C15.75 4.81066 15.4982 5.0625 15.1875 5.0625H8.34099C8.25788 5.29757 8.12291 5.51358 7.94324 5.69324C7.62678 6.00971 7.19755 6.1875 6.75 6.1875C6.30245 6.1875 5.87322 6.00971 5.55676 5.69324C5.37709 5.51358 5.24212 5.29757 5.15901 5.0625H2.8125C2.50184 5.0625 2.25 4.81066 2.25 4.5C2.25 4.18934 2.50184 3.9375 2.8125 3.9375H5.15901C5.24212 3.70243 5.37709 3.48642 5.55676 3.30676ZM6.75 3.9375C6.60082 3.9375 6.45774 3.99676 6.35225 4.10225C6.24676 4.20774 6.1875 4.35082 6.1875 4.5C6.1875 4.64918 6.24676 4.79226 6.35225 4.89775C6.45774 5.00324 6.60082 5.0625 6.75 5.0625C6.89918 5.0625 7.04226 5.00324 7.14775 4.89775C7.25324 4.79226 7.3125 4.64918 7.3125 4.5C7.3125 4.35082 7.25324 4.20774 7.14775 4.10225C7.04226 3.99676 6.89918 3.9375 6.75 3.9375ZM10.0568 7.80676C10.3732 7.49029 10.8024 7.3125 11.25 7.3125C11.6976 7.3125 12.1268 7.49029 12.4432 7.80676C12.6229 7.98642 12.7579 8.20243 12.841 8.4375H15.1875C15.4982 8.4375 15.75 8.68934 15.75 9C15.75 9.31066 15.4982 9.5625 15.1875 9.5625H12.841C12.7579 9.79757 12.6229 10.0136 12.4432 10.1932C12.1268 10.5097 11.6976 10.6875 11.25 10.6875C10.8024 10.6875 10.3732 10.5097 10.0568 10.1932C9.87709 10.0136 9.74212 9.79757 9.65901 9.5625H2.8125C2.50184 9.5625 2.25 9.31066 2.25 9C2.25 8.68934 2.50184 8.4375 2.8125 8.4375H9.65901C9.74212 8.20243 9.87709 7.98642 10.0568 7.80676ZM11.25 8.4375C11.1008 8.4375 10.9577 8.49676 10.8523 8.60225C10.7468 8.70774 10.6875 8.85082 10.6875 9C10.6875 9.14918 10.7468 9.29226 10.8523 9.39775C10.9577 9.50324 11.1008 9.5625 11.25 9.5625C11.3992 9.5625 11.5423 9.50324 11.6477 9.39775C11.7532 9.29226 11.8125 9.14918 11.8125 9C11.8125 8.85082 11.7532 8.70774 11.6477 8.60225C11.5423 8.49676 11.3992 8.4375 11.25 8.4375ZM5.55676 12.3068C5.87322 11.9903 6.30245 11.8125 6.75 11.8125C7.19755 11.8125 7.62678 11.9903 7.94324 12.3068C8.12291 12.4864 8.25788 12.7024 8.34099 12.9375H15.1875C15.4982 12.9375 15.75 13.1893 15.75 13.5C15.75 13.8107 15.4982 14.0625 15.1875 14.0625H8.34099C8.25788 14.2976 8.12291 14.5136 7.94324 14.6932C7.62678 15.0097 7.19755 15.1875 6.75 15.1875C6.30245 15.1875 5.87322 15.0097 5.55676 14.6932C5.37709 14.5136 5.24212 14.2976 5.15901 14.0625H2.8125C2.50184 14.0625 2.25 13.8107 2.25 13.5C2.25 13.1893 2.50184 12.9375 2.8125 12.9375H5.15901C5.24212 12.7024 5.37709 12.4864 5.55676 12.3068ZM6.75 12.9375C6.60082 12.9375 6.45774 12.9968 6.35225 13.1023C6.24676 13.2077 6.1875 13.3508 6.1875 13.5C6.1875 13.6492 6.24676 13.7923 6.35225 13.8977C6.45774 14.0032 6.60082 14.0625 6.75 14.0625C6.89918 14.0625 7.04226 14.0032 7.14775 13.8977C7.25324 13.7923 7.3125 13.6492 7.3125 13.5C7.3125 13.3508 7.25324 13.2077 7.14775 13.1023C7.04226 12.9968 6.89918 12.9375 6.75 12.9375Z" fill="#1E1E1D"/>
</svg>
