<svg width="40" height="40" viewBox="0 0 40 40" fill="none" xmlns="http://www.w3.org/2000/svg">
<path d="M32.5075 15.6583L9.43565 16.5154C8.67212 16.5154 8.22691 16.8012 8.0166 17.5353L3.2273 33.9198C3.02929 34.6161 2.08003 34.9419 1.41968 34.9419C0.759773 34.9419 0.219727 34.4019 0.219727 33.742V29.1503V10.3386V9.43986V6.68562C0.219727 5.76227 0.968328 5.01367 1.89168 5.01367H13.771C14.2144 5.01367 14.6394 5.18974 14.9529 5.50323L18.3995 8.94987C18.713 9.26336 19.1385 9.43942 19.5815 9.43942H30.8356C31.7589 9.43942 32.5075 10.188 32.5075 11.1114V11.6826V15.6583Z" fill="#E0AD31"/>
<path d="M1.41968 34.9419C2.07959 34.9419 2.42162 34.4383 2.61964 33.7419L7.44757 16.8986C7.65788 16.1645 8.3292 15.6587 9.09317 15.6587H38.6768C39.3832 15.6587 39.8908 16.3375 39.6914 17.0154L34.9074 33.2721C34.6914 34.0409 34.2176 34.9485 33.2377 34.9419H1.41968Z" fill="#FFC843"/>
</svg>
