<svg width="24" height="24" viewBox="0 0 24 24" fill="none" xmlns="http://www.w3.org/2000/svg">
<path fill-rule="evenodd" clip-rule="evenodd" d="M11.7337 3.576C11.7337 3.57608 11.7338 3.57593 11.7337 3.576L5.25 10.0605V19.8751C5.25 20.0819 5.41821 20.2501 5.625 20.2501H9V16.1251C9 15.0899 9.83979 14.2501 10.875 14.2501H13.125C14.1602 14.2501 15 15.0899 15 16.1251V20.2501H18.375C18.5818 20.2501 18.75 20.0819 18.75 19.8751V10.0607L12.2647 3.5754C12.119 3.4297 11.8813 3.42899 11.7337 3.576ZM20.03 9.21938L13.3253 2.51474C12.5931 1.78251 11.4067 1.78338 10.6743 2.51414L1.71964 11.4698C1.42676 11.7627 1.42679 12.2376 1.7197 12.5304C2.01261 12.8233 2.48748 12.8233 2.78036 12.5304L3.75 11.5606V19.8751C3.75 20.9103 4.58979 21.7501 5.625 21.7501H18.375C19.4102 21.7501 20.25 20.9103 20.25 19.8751V11.5607L21.2197 12.5304C21.5126 12.8233 21.9874 12.8233 22.2803 12.5304C22.5732 12.2375 22.5732 11.7626 22.2803 11.4697L20.0307 9.2201C20.0305 9.21986 20.0302 9.21962 20.03 9.21938ZM13.5 20.2501H10.5V16.1251C10.5 15.9183 10.6682 15.7501 10.875 15.7501H13.125C13.3318 15.7501 13.5 15.9183 13.5 16.1251V20.2501Z" fill="#1E1E1D"/>
</svg>
