<svg width="20" height="20" viewBox="0 0 20 20" fill="none" xmlns="http://www.w3.org/2000/svg">
<path fill-rule="evenodd" clip-rule="evenodd" d="M2.5 5.9375C2.5 5.02582 2.86216 4.15148 3.50682 3.50682C4.15148 2.86216 5.02582 2.5 5.9375 2.5H9.6875C10.5992 2.5 11.4735 2.86216 12.1182 3.50682C12.7628 4.15148 13.125 5.02582 13.125 5.9375V6.5625C13.125 6.81114 13.0262 7.0496 12.8504 7.22541C12.6746 7.40123 12.4361 7.5 12.1875 7.5C11.9389 7.5 11.7004 7.40123 11.5246 7.22541C11.3488 7.0496 11.25 6.81114 11.25 6.5625V5.9375C11.25 5.075 10.55 4.375 9.6875 4.375H5.9375C5.075 4.375 4.375 5.075 4.375 5.9375V14.0625C4.375 14.925 5.075 15.625 5.9375 15.625H9.6875C10.55 15.625 11.25 14.925 11.25 14.0625V13.4375C11.25 13.1889 11.3488 12.9504 11.5246 12.7746C11.7004 12.5988 11.9389 12.5 12.1875 12.5C12.4361 12.5 12.6746 12.5988 12.8504 12.7746C13.0262 12.9504 13.125 13.1889 13.125 13.4375V14.0625C13.125 14.9742 12.7628 15.8485 12.1182 16.4932C11.4735 17.1378 10.5992 17.5 9.6875 17.5H5.9375C5.02582 17.5 4.15148 17.1378 3.50682 16.4932C2.86216 15.8485 2.5 14.9742 2.5 14.0625V5.9375ZM14.3375 6.525C14.5133 6.34944 14.7516 6.25082 15 6.25082C15.2484 6.25082 15.4867 6.34944 15.6625 6.525L18.475 9.3375C18.6506 9.51328 18.7492 9.75156 18.7492 10C18.7492 10.2484 18.6506 10.4867 18.475 10.6625L15.6625 13.475C15.5767 13.5671 15.4732 13.641 15.3582 13.6922C15.2432 13.7435 15.119 13.771 14.9932 13.7732C14.8673 13.7755 14.7422 13.7523 14.6255 13.7052C14.5088 13.658 14.4027 13.5878 14.3137 13.4988C14.2247 13.4098 14.1545 13.3037 14.1073 13.187C14.0602 13.0703 14.037 12.9452 14.0393 12.8193C14.0415 12.6935 14.069 12.5693 14.1203 12.4543C14.1715 12.3393 14.2454 12.2358 14.3375 12.15L15.55 10.9375H6.5625C6.31386 10.9375 6.0754 10.8387 5.89959 10.6629C5.72377 10.4871 5.625 10.2486 5.625 10C5.625 9.75136 5.72377 9.5129 5.89959 9.33709C6.0754 9.16127 6.31386 9.0625 6.5625 9.0625H15.55L14.3375 7.85C14.1619 7.67422 14.0633 7.43594 14.0633 7.1875C14.0633 6.93906 14.1619 6.70078 14.3375 6.525Z" fill="#F9F9F8"/>
</svg>
