<svg width="80" height="80" viewBox="0 0 80 80" fill="none" xmlns="http://www.w3.org/2000/svg">
<path d="M0 40C0 17.9086 17.9086 0 40 0C62.0914 0 80 17.9086 80 40C80 62.0914 62.0914 80 40 80C17.9086 80 0 62.0914 0 40Z" fill="#8FFC4D"/>
<path d="M39.9586 56.25C38.8905 56.2608 37.8324 56.0434 36.8552 55.6123C35.8779 55.1811 35.004 54.5462 34.2919 53.75C33.2229 53.8213 32.1511 53.6632 31.1481 53.2863C30.1452 52.9095 29.2345 52.3226 28.4769 51.5651C27.7193 50.8075 27.1324 49.8967 26.7556 48.8938C26.3788 47.8909 26.2207 46.819 26.2919 45.75C25.4799 45.046 24.8287 44.1756 24.3824 43.1979C23.9361 42.2203 23.7051 41.1581 23.7051 40.0833C23.7051 39.0086 23.9361 37.9464 24.3824 36.9687C24.8287 35.9911 25.4799 35.1207 26.2919 34.4167C26.2207 33.3477 26.3788 32.2758 26.7556 31.2729C27.1324 30.2699 27.7193 29.3592 28.4769 28.6016C29.2345 27.844 30.1452 27.2572 31.1481 26.8803C32.1511 26.5035 33.2229 26.3454 34.2919 26.4167C34.9885 25.5901 35.8555 24.9238 36.8336 24.4635C37.8117 24.0033 38.8777 23.7599 39.9586 23.75C41.0331 23.7496 42.0951 23.98 43.0728 24.4257C44.0504 24.8714 44.9209 25.522 45.6253 26.3333C46.701 26.2495 47.7821 26.3983 48.7952 26.7696C49.8083 27.1408 50.7296 27.7258 51.4965 28.4847C52.2634 29.2437 52.8579 30.1589 53.2396 31.1681C53.6213 32.1773 53.7812 33.2568 53.7086 34.3333C54.5206 35.0374 55.1719 35.9077 55.6182 36.8854C56.0645 37.8631 56.2955 38.9253 56.2955 40C56.2955 41.0747 56.0645 42.1369 55.6182 43.1146C55.1719 44.0923 54.5206 44.9626 53.7086 45.6667C53.7855 46.737 53.6312 47.8113 53.2563 48.8167C52.8815 49.8222 52.2948 50.7353 51.536 51.4941C50.7772 52.2528 49.8642 52.8395 48.8587 53.2144C47.8532 53.5893 46.7789 53.7435 45.7086 53.6667C44.9951 54.4887 44.1111 55.1457 43.1182 55.5918C42.1252 56.0379 41.0471 56.2625 39.9586 56.25ZM34.8419 51.1C35.0425 51.0969 35.2406 51.144 35.4182 51.2372C35.5958 51.3304 35.7472 51.4666 35.8586 51.6333C36.3266 52.2845 36.942 52.8158 37.6546 53.1837C38.3672 53.5515 39.1567 53.7456 39.9586 53.75C40.7618 53.7524 41.5537 53.5613 42.2674 53.1929C42.981 52.8244 43.5955 52.2895 44.0586 51.6333C44.1913 51.4362 44.3788 51.2822 44.5979 51.1904C44.8171 51.0986 45.0584 51.0729 45.2919 51.1167C46.074 51.2505 46.8766 51.1963 47.6335 50.9585C48.3904 50.7208 49.0799 50.3063 49.645 49.7494C50.21 49.1925 50.6344 48.5091 50.8831 47.7557C51.1319 47.0023 51.1977 46.2005 51.0753 45.4167C51.0315 45.1831 51.0572 44.9418 51.149 44.7227C51.2408 44.5035 51.3948 44.316 51.5919 44.1833C52.2598 43.7122 52.802 43.0844 53.171 42.3551C53.54 41.6258 53.7246 40.8172 53.7086 40C53.7084 39.1997 53.516 38.4111 53.1477 37.7005C52.7793 36.99 52.2458 36.3782 51.5919 35.9167C51.3965 35.7784 51.2442 35.5876 51.1528 35.3664C51.0614 35.1452 51.0345 34.9026 51.0753 34.6667C51.2091 33.8847 51.1549 33.082 50.9171 32.3251C50.6794 31.5682 50.2649 30.8787 49.708 30.3137C49.1511 29.7486 48.4677 29.3242 47.7143 29.0755C46.9609 28.8268 46.1592 28.7609 45.3753 28.8833C45.1435 28.9246 44.9047 28.8996 44.6865 28.8111C44.4683 28.7227 44.2796 28.5744 44.1419 28.3833C43.6726 27.7124 43.0457 27.167 42.3163 26.795C41.5869 26.423 40.7773 26.2359 39.9586 26.25C39.1554 26.2476 38.3635 26.4387 37.6498 26.8071C36.9362 27.1756 36.3218 27.7105 35.8586 28.3667C35.726 28.5638 35.5385 28.7178 35.3193 28.8096C35.1001 28.9014 34.8588 28.9271 34.6253 28.8833C33.8352 28.7458 33.0237 28.8004 32.2591 29.0423C31.4945 29.2843 30.7994 29.7067 30.2323 30.2737C29.6653 30.8408 29.2429 31.5359 29.001 32.3005C28.759 33.0651 28.7044 33.8766 28.8419 34.6667C28.8827 34.9026 28.8559 35.1452 28.7644 35.3664C28.673 35.5876 28.5207 35.7784 28.3253 35.9167C27.6718 36.3784 27.1387 36.9903 26.7708 37.7008C26.4029 38.4114 26.2108 39.1998 26.2108 40C26.2108 40.8002 26.4029 41.5886 26.7708 42.2992C27.1387 43.0097 27.6718 43.6216 28.3253 44.0833C28.5207 44.2216 28.673 44.4124 28.7644 44.6336C28.8559 44.8548 28.8827 45.0974 28.8419 45.3333C28.7044 46.1234 28.759 46.9349 29.001 47.6995C29.2429 48.4641 29.6653 49.1592 30.2323 49.7263C30.7994 50.2933 31.4945 50.7157 32.2591 50.9577C33.0237 51.1996 33.8352 51.2542 34.6253 51.1167L34.8419 51.1ZM38.7086 46.25C38.3772 46.2497 38.0595 46.1178 37.8253 45.8833L34.0753 42.0833C33.9369 41.8399 33.8842 41.5571 33.9257 41.2802C33.9672 41.0033 34.1005 40.7484 34.3041 40.5563C34.5078 40.3641 34.7701 40.2459 35.0489 40.2206C35.3278 40.1953 35.607 40.2643 35.8419 40.4167L38.5419 43.0667L43.9419 35.5167C44.1364 35.247 44.4301 35.0657 44.7583 35.0126C45.0865 34.9594 45.4223 35.0388 45.6919 35.2333C45.9616 35.4278 46.1429 35.7215 46.196 36.0497C46.2492 36.3778 46.1698 36.7137 45.9753 36.9833L39.7253 45.7333C39.6184 45.8801 39.4813 46.0022 39.3231 46.0914C39.165 46.1805 38.9895 46.2346 38.8086 46.25H38.7086Z" fill="#378200"/>
</svg>
