<svg width="20" height="20" viewBox="0 0 20 20" fill="none" xmlns="http://www.w3.org/2000/svg">
<path d="M4.16667 17.5C3.70833 17.5 3.3125 17.3403 2.97917 17.0208C2.65972 16.6875 2.5 16.2917 2.5 15.8333V4.16667C2.5 3.70833 2.65972 3.31945 2.97917 3C3.3125 2.66667 3.70833 2.5 4.16667 2.5H15.8333C16.2917 2.5 16.6806 2.66667 17 3C17.3333 3.31945 17.5 3.70833 17.5 4.16667V15.8333C17.5 16.2917 17.3333 16.6875 17 17.0208C16.6806 17.3403 16.2917 17.5 15.8333 17.5H4.16667ZM10 13.3333C10.5278 13.3333 11.0069 13.1806 11.4375 12.875C11.8681 12.5694 12.1667 12.1667 12.3333 11.6667H15.8333V4.16667H4.16667V11.6667H7.66667C7.83333 12.1667 8.13195 12.5694 8.5625 12.875C8.99306 13.1806 9.47222 13.3333 10 13.3333Z" fill="white"/>
</svg>
