<svg width="40" height="40" viewBox="0 0 40 40" fill="none" xmlns="http://www.w3.org/2000/svg">
<rect width="40" height="40" fill="white"/>
<path d="M7.45703 37.9173C5.96398 37.9173 4.69488 37.3948 3.64974 36.3496C2.6046 35.3045 2.08203 34.0354 2.08203 32.5423V7.45898C2.08203 5.96593 2.6046 4.69683 3.64974 3.65169C4.69488 2.60655 5.96398 2.08398 7.45703 2.08398H32.5404C34.0334 2.08398 35.3025 2.60655 36.3477 3.65169C37.3928 4.69683 37.9154 5.96593 37.9154 7.45898V32.5423C37.9154 34.0354 37.3928 35.3045 36.3477 36.3496C35.3025 37.3948 34.0334 37.9173 32.5404 37.9173H7.45703ZM7.45703 34.334H32.5404C33.048 34.334 33.4732 34.162 33.816 33.818C34.16 33.4752 34.332 33.05 34.332 32.5423V7.45898C34.332 6.95135 34.16 6.52553 33.816 6.18153C33.4732 5.83872 33.048 5.66732 32.5404 5.66732H7.45703C6.94939 5.66732 6.52357 5.83872 6.17957 6.18153C5.83677 6.52553 5.66536 6.95135 5.66536 7.45898V32.5423C5.66536 33.05 5.83677 33.4752 6.17957 33.818C6.52357 34.162 6.94939 34.334 7.45703 34.334ZM9.2487 30.7507L16.4154 23.584L19.6404 26.7642L23.582 21.7923L30.7487 30.7507H9.2487ZM12.832 16.4173C11.8466 16.4173 11.0033 16.0662 10.3022 15.3638C9.59986 14.6627 9.2487 13.8194 9.2487 12.834C9.2487 11.8486 9.59986 11.0053 10.3022 10.3042C11.0033 9.60182 11.8466 9.25065 12.832 9.25065C13.8174 9.25065 14.6613 9.60182 15.3637 10.3042C16.0648 11.0053 16.4154 11.8486 16.4154 12.834C16.4154 13.8194 16.0648 14.6627 15.3637 15.3638C14.6613 16.0662 13.8174 16.4173 12.832 16.4173Z" fill="#C0C1BE"/>
</svg>
