<svg width="24" height="24" viewBox="0 0 24 24" fill="none" xmlns="http://www.w3.org/2000/svg">
<path d="M6.73786 20.25C5.54506 20.2487 4.3883 19.8411 3.45802 19.0946C2.52774 18.348 1.87938 17.3069 1.61976 16.1427C1.36014 14.9785 1.50473 13.7606 2.02967 12.6895C2.55462 11.6184 3.42868 10.7581 4.50788 10.25C4.37668 8.7721 4.79775 7.29797 5.68977 6.1123C6.58179 4.92664 7.88144 4.11353 9.33784 3.83002C10.714 3.56185 12.1407 3.7841 13.3701 4.45816C14.5995 5.13222 15.554 6.21554 16.0679 7.52002C16.9286 7.42203 17.7968 7.62428 18.5256 8.09256C19.2545 8.56084 19.7993 9.26642 20.0679 10.09C20.2489 10.6513 20.2968 11.247 20.2078 11.83C21.1498 12.3553 21.8707 13.2027 22.2381 14.2167C22.6055 15.2308 22.5948 16.3433 22.2078 17.35C21.882 18.1987 21.308 18.9294 20.5605 19.4467C19.813 19.9641 18.9269 20.244 18.0178 20.25H6.73786ZM10.4879 5.25003C10.1994 5.25138 9.91164 5.27814 9.62788 5.33002C9.04589 5.44322 8.49231 5.67134 7.99952 6.00101C7.50673 6.33068 7.08463 6.7553 6.75788 7.25003C6.42347 7.73712 6.19006 8.28631 6.07154 8.86514C5.95303 9.44397 5.95181 10.0407 6.06788 10.62C6.10182 10.7995 6.06992 10.9853 5.9781 11.1432C5.88628 11.3011 5.74067 11.4207 5.56788 11.48C4.72262 11.7599 4.00445 12.3313 3.54194 13.0921C3.07944 13.8529 2.90275 14.7535 3.04347 15.6327C3.18419 16.5119 3.63314 17.3123 4.31001 17.8908C4.98687 18.4692 5.84749 18.788 6.73786 18.79H17.9879C18.5951 18.7895 19.1878 18.6047 19.6878 18.2601C20.1877 17.9155 20.5713 17.4273 20.7879 16.86C20.9297 16.4916 20.9974 16.0987 20.9871 15.704C20.9768 15.3094 20.8887 14.9206 20.7279 14.56C20.567 14.1998 20.3368 13.8748 20.0502 13.6037C19.7637 13.3326 19.4264 13.1207 19.0579 12.98C18.9666 12.9466 18.8828 12.8954 18.8112 12.8296C18.7397 12.7637 18.6819 12.6844 18.641 12.5962C18.6001 12.508 18.577 12.4126 18.5731 12.3154C18.5691 12.2183 18.5843 12.1213 18.6179 12.03C18.7727 11.5625 18.7727 11.0575 18.6179 10.59C18.4303 10.0238 18.0265 9.55469 17.4945 9.28494C16.9625 9.0152 16.3454 8.96669 15.7778 9.15002C15.6776 9.1869 15.5708 9.20223 15.4642 9.19504C15.3577 9.18785 15.2539 9.15828 15.1596 9.10828C15.0652 9.05827 14.9824 8.98897 14.9166 8.90485C14.8509 8.82072 14.8036 8.72366 14.7778 8.62003C14.532 7.66521 13.9787 6.81787 13.2034 6.2088C12.428 5.59973 11.4737 5.2628 10.4879 5.25003ZM11.9879 17.25C11.7898 17.2474 11.6005 17.1676 11.4604 17.0275C11.3203 16.8874 11.2405 16.6981 11.2379 16.5V11.55L9.52784 13.25C9.38428 13.3887 9.19249 13.4662 8.99287 13.4662C8.79325 13.4662 8.6014 13.3887 8.45784 13.25C8.31738 13.1094 8.23854 12.9188 8.23854 12.72C8.23854 12.5213 8.31738 12.3307 8.45784 12.19L11.4578 9.19003C11.525 9.12191 11.6072 9.07053 11.6979 9.04004C11.7877 9.00066 11.8848 8.98032 11.9829 8.98032C12.081 8.98032 12.178 9.00066 12.2678 9.04004C12.3609 9.07642 12.4458 9.1308 12.5178 9.20004L15.5178 12.2C15.6583 12.3407 15.7372 12.5313 15.7372 12.73C15.7372 12.9288 15.6583 13.1194 15.5178 13.26C15.3743 13.3987 15.1825 13.4763 14.9829 13.4763C14.7832 13.4763 14.5915 13.3987 14.4479 13.26L12.7279 11.54V16.48C12.7305 16.5794 12.7134 16.6782 12.6776 16.7709C12.6417 16.8635 12.5877 16.9481 12.5189 17.0198C12.45 17.0914 12.3677 17.1487 12.2765 17.1882C12.1853 17.2277 12.0872 17.2487 11.9879 17.25Z" fill="#3C3D3A"/>
</svg>
