<svg width="24" height="24" viewBox="0 0 24 24" fill="none" xmlns="http://www.w3.org/2000/svg">
<path d="M6.73811 20.25C5.54531 20.2487 4.38854 19.8411 3.45826 19.0946C2.52798 18.348 1.87962 17.3069 1.62001 16.1427C1.36039 14.9785 1.50497 13.7606 2.02992 12.6895C2.55487 11.6184 3.42893 10.7581 4.50813 10.25C4.37693 8.7721 4.798 7.29797 5.69001 6.1123C6.58203 4.92664 7.88168 4.11353 9.33808 3.83002C10.7143 3.56185 12.1409 3.7841 13.3703 4.45816C14.5997 5.13222 15.5542 6.21554 16.0681 7.52002C16.9289 7.42203 17.7971 7.62428 18.5259 8.09256C19.2547 8.56084 19.7995 9.26642 20.0681 10.09C20.2492 10.6513 20.2971 11.247 20.2081 11.83C21.1501 12.3553 21.871 13.2027 22.2384 14.2167C22.6058 15.2308 22.595 16.3433 22.2081 17.35C21.8823 18.1987 21.3082 18.9294 20.5607 19.4467C19.8133 19.9641 18.9271 20.244 18.0181 20.25H6.73811ZM10.4881 5.25003C10.1996 5.25138 9.91188 5.27814 9.62812 5.33002C9.04614 5.44322 8.49256 5.67134 7.99977 6.00101C7.50698 6.33068 7.08488 6.7553 6.75813 7.25003C6.42371 7.73712 6.1903 8.28631 6.07179 8.86514C5.95327 9.44397 5.95206 10.0407 6.06813 10.62C6.10206 10.7995 6.07017 10.9853 5.97834 11.1432C5.88652 11.3011 5.74092 11.4207 5.56813 11.48C4.72286 11.7599 4.00469 12.3313 3.54219 13.0921C3.07968 13.8529 2.90299 14.7535 3.04371 15.6327C3.18443 16.5119 3.63339 17.3123 4.31025 17.8908C4.98712 18.4692 5.84773 18.788 6.73811 18.79H17.9881C18.5953 18.7895 19.1881 18.6047 19.688 18.2601C20.1879 17.9155 20.5715 17.4273 20.7881 16.86C20.9299 16.4916 20.9977 16.0987 20.9874 15.704C20.9771 15.3094 20.889 14.9206 20.7281 14.56C20.5673 14.1998 20.337 13.8748 20.0505 13.6037C19.7639 13.3326 19.4267 13.1207 19.0581 12.98C18.9668 12.9466 18.883 12.8954 18.8115 12.8296C18.7399 12.7637 18.6821 12.6844 18.6412 12.5962C18.6004 12.508 18.5773 12.4126 18.5733 12.3154C18.5693 12.2183 18.5846 12.1213 18.6181 12.03C18.773 11.5625 18.773 11.0575 18.6181 10.59C18.4306 10.0238 18.0268 9.55469 17.4948 9.28494C16.9628 9.0152 16.3457 8.96669 15.7781 9.15002C15.6779 9.1869 15.571 9.20223 15.4645 9.19504C15.3579 9.18785 15.2541 9.15828 15.1598 9.10828C15.0655 9.05827 14.9826 8.98897 14.9169 8.90485C14.8511 8.82072 14.8038 8.72366 14.7781 8.62003C14.5322 7.66521 13.979 6.81787 13.2036 6.2088C12.4283 5.59973 11.474 5.2628 10.4881 5.25003ZM11.9881 17.25C11.79 17.2474 11.6007 17.1676 11.4606 17.0275C11.3205 16.8874 11.2407 16.6981 11.2381 16.5V11.55L9.52809 13.25C9.38452 13.3887 9.19273 13.4662 8.99311 13.4662C8.7935 13.4662 8.60164 13.3887 8.45808 13.25C8.31763 13.1094 8.23878 12.9188 8.23878 12.72C8.23878 12.5213 8.31763 12.3307 8.45808 12.19L11.4581 9.19003C11.5252 9.12191 11.6075 9.07053 11.6981 9.04004C11.788 9.00066 11.885 8.98032 11.9831 8.98032C12.0812 8.98032 12.1782 9.00066 12.2681 9.04004C12.3611 9.07642 12.4461 9.1308 12.5181 9.20004L15.5181 12.2C15.6585 12.3407 15.7374 12.5313 15.7374 12.73C15.7374 12.9288 15.6585 13.1194 15.5181 13.26C15.3745 13.3987 15.1827 13.4763 14.9831 13.4763C14.7835 13.4763 14.5917 13.3987 14.4481 13.26L12.7281 11.54V16.48C12.7308 16.5794 12.7137 16.6782 12.6778 16.7709C12.6419 16.8635 12.588 16.9481 12.5191 17.0198C12.4503 17.0914 12.3679 17.1487 12.2767 17.1882C12.1856 17.2277 12.0875 17.2487 11.9881 17.25Z" fill="#3C3D3A"/>
</svg>
