<svg width="24" height="24" viewBox="0 0 24 24" fill="none" xmlns="http://www.w3.org/2000/svg">
<path fill-rule="evenodd" clip-rule="evenodd" d="M12 5.25C7.6926 5.25 4.03589 8.04402 2.74776 11.9196C2.72989 11.9733 2.72981 12.0315 2.74768 12.0852C4.03877 15.9589 7.69457 18.75 12 18.75C16.3075 18.75 19.9641 15.956 21.2513 12.0806L21.2522 12.0778C21.2701 12.0246 21.2697 11.969 21.2526 11.9183L21.2515 11.9151C19.9605 8.04115 16.3056 5.25 12 5.25ZM1.3244 11.4462C2.81033 6.97587 7.02757 3.75 12 3.75C16.9705 3.75 21.1856 6.97285 22.6746 11.4409C22.7962 11.8027 22.7956 12.1934 22.6743 12.5548C21.1891 17.0247 16.972 20.25 12 20.25C7.02963 20.25 2.81352 17.0272 1.32451 12.5591C1.20438 12.1981 1.20432 11.8073 1.3244 11.4462Z" fill="#969793"/>
<path fill-rule="evenodd" clip-rule="evenodd" d="M12 9.75C11.4033 9.75 10.831 9.98705 10.409 10.409C9.98709 10.831 9.75004 11.4033 9.75004 12C9.75004 12.5967 9.98709 13.169 10.409 13.591C10.831 14.0129 11.4033 14.25 12 14.25C12.5968 14.25 13.1691 14.0129 13.591 13.591C14.013 13.169 14.25 12.5967 14.25 12C14.25 11.4033 14.013 10.831 13.591 10.409C13.1691 9.98705 12.5968 9.75 12 9.75ZM9.34839 9.34835C10.0517 8.64509 11.0055 8.25 12 8.25C12.9946 8.25 13.9484 8.64509 14.6517 9.34835C15.355 10.0516 15.75 11.0054 15.75 12C15.75 12.9946 15.355 13.9484 14.6517 14.6517C13.9484 15.3549 12.9946 15.75 12 15.75C11.0055 15.75 10.0517 15.3549 9.34839 14.6517C8.64513 13.9484 8.25004 12.9946 8.25004 12C8.25004 11.0054 8.64513 10.0516 9.34839 9.34835Z" fill="#969793"/>
</svg>
